<svg width="560" height="206" viewBox="0 0 560 206" fill="none" xmlns="http://www.w3.org/2000/svg">
<path d="M0.00999451 13H32.67V95.22C32.67 95.22 69.55 52.14 107.56 91.84C113.27 97.81 115.44 108.17 116.01 118.87C116.58 129.57 116.01 201.09 116.01 201.09H85.6V120.56C85.6 112.56 82.22 100.48 60.82 100.29C40.52 100.11 32.66 114.75 32.66 123.94V201.09H0V13.01L0.00999451 13Z" fill="#006f45"/>
<path d="M198.02 74.97C161.94 74.97 132.7 103.85 132.7 139.47C132.7 175.09 161.95 203.97 198.02 203.97C234.09 203.97 263.34 175.09 263.34 139.47C263.34 103.85 234.09 74.97 198.02 74.97ZM198.02 178.53C178.89 178.53 163.39 161.15 163.39 139.71C163.39 118.27 178.9 100.89 198.02 100.89C217.14 100.89 232.65 118.27 232.65 139.71C232.65 161.15 217.14 178.53 198.02 178.53Z" fill="#006f45"/>
<path d="M333.36 77C330.43 77.54 318.58 84.74 312.71 95.37V77H280.42V201.17H312.71V158.78C312.84 148.19 314.57 109.7 332.89 104.97C338.05 103.64 349.5 104.5 349.5 104.5V77C349.5 77 335.47 76.61 333.36 77Z" fill="#006f45"/>
<path d="M547.08 80.85H530.57C528.79 80.85 528.14 78.94 529.4 77.38L533.67 71.66C535.25 69.37 539.84 68.74 540.7 68.74H558.02C559.8 68.74 560.45 70.65 559.19 72.21L554.89 77.96C554.29 78.71 551.26 81.06 547.08 80.86V80.85Z" fill="#006f45"/>
<path d="M555.11 85.86C554.31 87.24 552.78 88.09 551.12 88.09H528.99V201.16H556.52V83.42L555.11 85.85V85.86Z" fill="#006f45"/>
<path d="M448.32 52.22C447.87 54.03 447.39 55.84 446.99 57.66C445.66 63.72 441.64 66.1 436.29 66.51C430.35 66.97 424.35 66.83 418.38 66.86C416.09 66.87 414.48 65.57 414.11 63.29C413.79 61.31 413.64 59.24 413.79 57.25C414 54.51 415.49 53.08 418.17 52.48C427.83 50.31 435.56 45.26 441.14 37.03C444.76 31.69 446.93 25.72 448.33 19.5C449.36 14.92 451.65 12.76 456.3 12.78C458.34 12.79 460.37 12.78 462.41 12.78C465.12 12.8 465.94 13.6 465.94 16.32C465.94 26.5 465.93 36.67 465.96 46.85C465.97 50.53 468.48 53.09 472.13 53.24C473.08 53.28 474.04 53.26 474.99 53.26C486.31 53.26 497.63 53.3 508.95 53.26C510.78 53.26 512.33 53.8 513.14 55.38C514.59 58.23 514.5 61.35 513.38 64.22C512.38 66.78 509.85 67.24 507.31 67.24C495.67 67.24 484.03 67.24 472.39 67.24C468.06 67.24 465.94 69.34 465.94 73.66C465.94 100.88 465.89 128.11 466.02 155.33C466.05 160.83 466.55 166.34 468.59 171.61C471.28 178.54 476.55 181.46 483.63 181.89C492.23 182.42 499.35 179.17 505.6 173.52C507.61 171.7 509.13 171.63 511.34 172.87C513.13 173.88 514.32 176.17 513.88 178.2C513.66 179.23 513.22 180.3 512.59 181.14C504.3 192.24 493.93 200.34 480.01 203.03C471.45 204.68 462.94 204.41 454.72 201.2C448.68 198.84 443.97 194.74 440.55 189.25C436.11 182.12 434.02 174.24 433.88 165.91C433.62 150.78 433.53 135.65 433.46 120.52C433.39 105.45 433.45 90.37 433.46 75.3C433.46 72.26 433.52 72.37 436.15 72.19C443.66 71.68 449.3 65.65 449.18 57.54C449.15 55.76 449 53.99 448.91 52.22C448.72 52.22 448.53 52.22 448.34 52.22H448.32Z" fill="#006f45"/>
<path d="M411.11 52.46V66.27C409.45 66.27 407.45 66.26 405.44 66.27C403.79 66.28 402.13 66.23 400.49 66.4C398.88 66.57 397.88 67.35 397.88 69.26C397.93 99.35 397.86 129.44 398.01 159.53C398.04 165.64 399.12 171.67 402.94 176.84C405.68 180.54 409.52 182.14 413.88 182.6C419.94 183.24 425.63 181.95 430.88 178.82C431.29 178.58 431.79 178.49 432.27 178.32C433.81 182.29 435.35 186.1 436.73 189.96C436.91 190.46 436.45 191.48 435.98 191.87C427.47 198.87 417.99 203.6 406.86 204.9C399.6 205.75 392.65 204.9 385.96 202.2C377.54 198.78 372.09 192.36 368.77 184.04C366.56 178.51 365.23 172.75 365.2 166.79C365.06 136.07 364.99 105.35 364.91 74.63C364.91 71.88 365.01 71.81 367.75 71.66C373.86 71.33 378.86 66.92 380.29 60.94C381.04 57.78 380.86 54.69 380.69 51.56C380.5 51.51 380.31 51.46 380.12 51.41C379.83 52.29 379.44 53.15 379.28 54.05C378.48 58.5 377.21 62.69 372.61 64.66C370.83 65.42 368.87 66.08 366.97 66.13C360.36 66.32 353.74 66.23 347.13 66.26C345.56 66.26 344.76 65.55 344.76 63.96C344.76 60.84 344.76 57.73 344.75 54.61C344.75 52.94 345.7 52.3 347.22 52.05C354.79 50.77 361.48 47.69 367.16 42.43C371.3 38.6 374.34 34.03 376.4 28.86C377.95 24.99 379.07 20.94 380.24 16.92C381.16 13.75 383.81 11.43 387.1 11.34C389.64 11.27 392.19 11.3 394.73 11.31C397.15 11.32 397.91 12.07 397.92 14.52C397.93 25.78 397.92 37.04 397.92 48.3C397.92 51.56 398.85 52.5 402.1 52.48C405.14 52.46 408.17 52.48 411.13 52.48L411.11 52.46Z" fill="#006f45"/>
<path d="M364.93 33.56C359.11 32.45 355.28 28.9 352.2 24.23C349.48 20.1 346.86 15.85 342.69 12.94C334.57 7.28002 325.95 6.06002 316.77 10.11C316.18 10.37 315.68 10.83 315.14 11.19C315.21 11.33 315.27 11.48 315.34 11.62C316.23 11.39 317.12 11.13 318.02 10.93C322.92 9.84001 327.81 9.49001 332.65 11.26C337.67 13.09 341.06 16.66 343.1 21.48C346.18 28.79 351.19 34.15 358.43 37.43C359.35 37.85 360.29 38.23 361.21 38.64C361.3 38.68 361.33 38.85 361.53 39.24C359.77 39.67 358.1 40.32 356.39 40.44C348.1 41.03 340.4 39.37 333.57 34.32C329.43 31.27 326.99 27 324.49 22.71C323.66 21.28 322.87 19.82 321.92 18.48C320.34 16.24 317.96 15.25 315.42 14.46C312.54 13.56 312.06 11.22 314.13 8.94002C317.59 5.14002 321.94 2.88002 326.84 1.66002C335.69 -0.52998 344.3 0.0700192 352.25 4.80002C359.45 9.09002 363.93 15.45 365.13 23.84C365.52 26.56 365.41 29.35 365.46 32.12C365.46 32.58 365.13 33.04 364.94 33.55L364.93 33.56Z" fill="#006f45"/>
</svg>
